<?xml version="1.0" encoding="UTF-8"?>
<svg xmlns="http://www.w3.org/2000/svg" viewBox="-42 -22 84 44" width="200" height="105">
  <g fill="none" stroke-linecap="round">
    <path d="M-36.0,-16.5 L-34.0,-15.36 L-32.0,-14.41 L-30.0,-13.69 L-28.0,-13.22 L-26.0,-13.02 L-24.0,-13.05 L-22.0,-13.29 L-20.0,-13.7 L-18.0,-14.22 L-16.0,-14.82 L-14.0,-15.44 L-12.0,-16.04 L-10.0,-16.57 L-8.0,-17.01 L-6.0,-17.35 L-4.0,-17.57 L-2.0,-17.68 L0.0,-17.69 L2.0,-17.61 L4.0,-17.47 L6.0,-17.29 L8.0,-17.1 L10.0,-16.9 L12.0,-16.73 L14.0,-16.58 L16.0,-16.47 L18.0,-16.4 L20.0,-16.37 L22.0,-16.36 L24.0,-16.38 L26.0,-16.41 L28.0,-16.44 L30.0,-16.47 L32.0,-16.49 L34.0,-16.5 L36.0,-16.5" stroke="#2d5bf0" stroke-width="2.3" opacity="0.24" fill="none" stroke-linecap="round"/>
    <path d="M-36.0,-5.69 L-34.0,-4.8 L-32.0,-4.52 L-30.0,-4.8 L-28.0,-5.57 L-26.0,-6.69 L-24.0,-8.04 L-22.0,-9.46 L-20.0,-10.83 L-18.0,-12.03 L-16.0,-12.98 L-14.0,-13.63 L-12.0,-13.96 L-10.0,-13.98 L-8.0,-13.75 L-6.0,-13.31 L-4.0,-12.76 L-2.0,-12.14 L0.0,-11.55 L2.0,-11.02 L4.0,-10.6 L6.0,-10.31 L8.0,-10.16 L10.0,-10.12 L12.0,-10.19 L14.0,-10.32 L16.0,-10.48 L18.0,-10.65 L20.0,-10.81 L22.0,-10.92 L24.0,-11.0 L26.0,-11.04 L28.0,-11.05 L30.0,-11.04 L32.0,-11.02 L34.0,-11.01 L36.0,-11.0" stroke="#2d5bf0" stroke-width="2.7" opacity="0.4" fill="none" stroke-linecap="round"/>
    <path d="M-36.0,0.79 L-34.0,0.06 L-32.0,-1.18 L-30.0,-2.75 L-28.0,-4.44 L-26.0,-6.04 L-24.0,-7.39 L-22.0,-8.37 L-20.0,-8.91 L-18.0,-9.01 L-16.0,-8.71 L-14.0,-8.11 L-12.0,-7.31 L-10.0,-6.43 L-8.0,-5.6 L-6.0,-4.89 L-4.0,-4.37 L-2.0,-4.07 L0.0,-3.99 L2.0,-4.1 L4.0,-4.35 L6.0,-4.67 L8.0,-5.02 L10.0,-5.34 L12.0,-5.59 L14.0,-5.76 L16.0,-5.85 L18.0,-5.86 L20.0,-5.81 L22.0,-5.73 L24.0,-5.65 L26.0,-5.58 L28.0,-5.53 L30.0,-5.5 L32.0,-5.49 L34.0,-5.5 L36.0,-5.5" stroke="#2d5bf0" stroke-width="3.1" opacity="0.55" fill="none" stroke-linecap="round"/>
    <path d="M-36.0,2.22 L-34.0,1.11 L-32.0,-0.03 L-30.0,-1.03 L-28.0,-1.78 L-26.0,-2.2 L-24.0,-2.27 L-22.0,-2.02 L-20.0,-1.53 L-18.0,-0.89 L-16.0,-0.22 L-14.0,0.38 L-12.0,0.85 L-10.0,1.12 L-8.0,1.2 L-6.0,1.1 L-4.0,0.86 L-2.0,0.55 L0.0,0.22 L2.0,-0.08 L4.0,-0.3 L6.0,-0.43 L8.0,-0.47 L10.0,-0.43 L12.0,-0.33 L14.0,-0.22 L16.0,-0.1 L18.0,-0.01 L20.0,0.05 L22.0,0.08 L24.0,0.08 L26.0,0.06 L28.0,0.04 L30.0,0.02 L32.0,0.01 L34.0,0.0 L36.0,0.0" stroke="#2d5bf0" stroke-width="3.5" opacity="0.7" fill="none" stroke-linecap="round"/>
    <path d="M-36.0,5.34 L-34.0,4.29 L-32.0,3.56 L-30.0,3.23 L-28.0,3.32 L-26.0,3.77 L-24.0,4.45 L-22.0,5.23 L-20.0,5.95 L-18.0,6.5 L-16.0,6.8 L-14.0,6.84 L-12.0,6.66 L-10.0,6.3 L-8.0,5.87 L-6.0,5.44 L-4.0,5.1 L-2.0,4.89 L0.0,4.82 L2.0,4.89 L4.0,5.04 L6.0,5.24 L8.0,5.44 L10.0,5.6 L12.0,5.7 L14.0,5.73 L16.0,5.72 L18.0,5.66 L20.0,5.6 L22.0,5.54 L24.0,5.5 L26.0,5.48 L28.0,5.47 L30.0,5.48 L32.0,5.49 L34.0,5.5 L36.0,5.5" stroke="#2d5bf0" stroke-width="3.1" opacity="0.55" fill="none" stroke-linecap="round"/>
    <path d="M-36.0,6.81 L-34.0,5.93 L-32.0,6.17 L-30.0,7.37 L-28.0,9.16 L-26.0,11.12 L-24.0,12.82 L-22.0,13.93 L-20.0,14.31 L-18.0,13.97 L-16.0,13.07 L-14.0,11.88 L-12.0,10.69 L-10.0,9.75 L-8.0,9.21 L-6.0,9.12 L-4.0,9.43 L-2.0,10.0 L0.0,10.67 L2.0,11.27 L4.0,11.69 L6.0,11.88 L8.0,11.84 L10.0,11.63 L12.0,11.35 L14.0,11.07 L16.0,10.87 L18.0,10.76 L20.0,10.74 L22.0,10.79 L24.0,10.87 L26.0,10.95 L28.0,11.0 L30.0,11.02 L32.0,11.01 L34.0,11.0 L36.0,11.0" stroke="#2d5bf0" stroke-width="2.7" opacity="0.4" fill="none" stroke-linecap="round"/>
    <path d="M-36.0,9.03 L-34.0,10.63 L-32.0,13.47 L-30.0,16.72 L-28.0,19.55 L-26.0,21.31 L-24.0,21.71 L-22.0,20.79 L-20.0,18.97 L-18.0,16.79 L-16.0,14.85 L-14.0,13.57 L-12.0,13.19 L-10.0,13.66 L-8.0,14.74 L-6.0,16.06 L-4.0,17.25 L-2.0,18.05 L0.0,18.33 L2.0,18.11 L4.0,17.55 L6.0,16.86 L8.0,16.24 L10.0,15.85 L12.0,15.71 L14.0,15.81 L16.0,16.05 L18.0,16.32 L20.0,16.55 L22.0,16.67 L24.0,16.69 L26.0,16.64 L28.0,16.58 L30.0,16.52 L32.0,16.5 L34.0,16.5 L36.0,16.5" stroke="#2d5bf0" stroke-width="2.3" opacity="0.24" fill="none" stroke-linecap="round"/>
    <circle cx="38" cy="0" r="3" fill="#2d5bf0" opacity="0.6"/>
  </g>
</svg>